<svg width="68" height="69" viewBox="0 0 68 69" fill="none" xmlns="http://www.w3.org/2000/svg">
<circle cx="34" cy="34.5" r="30" fill="url(#paint0_linear_36_313)"/>
<circle cx="34" cy="34.5" r="32" stroke="white" stroke-opacity="0.2" stroke-width="4"/>
<g clip-path="url(#clip0_36_313)">
<path fill-rule="evenodd" clip-rule="evenodd" d="M33.3909 14.7245C31.4704 14.6977 29.5637 15.0528 27.7815 15.7692C25.9994 16.4856 24.3774 17.549 23.0098 18.8977C21.6422 20.2463 20.5562 21.8533 19.815 23.6252C19.0737 25.3972 18.692 27.2988 18.692 29.2195C18.692 31.1403 19.0737 33.0418 19.815 34.8138C20.5562 36.5858 21.6422 38.1927 23.0098 39.5414C24.3774 40.89 25.9994 41.9535 27.7815 42.6699C29.5637 43.3863 31.4704 43.7414 33.3909 43.7145C37.2356 43.7145 40.9229 42.1872 43.6415 39.4686C46.3601 36.75 47.8874 33.0628 47.8874 29.2181C47.8874 25.3734 46.3601 21.6862 43.6415 18.9676C40.9229 16.249 37.2356 14.7245 33.3909 14.7245ZM33.9651 21.5781L35.8971 25.4646C35.939 25.5633 36.0069 25.6489 36.0936 25.7121C36.1802 25.7754 36.2824 25.814 36.3892 25.8238L40.6773 26.4744C40.8001 26.4901 40.9159 26.5405 41.011 26.6197C41.1062 26.6989 41.1768 26.8036 41.2145 26.9215C41.2522 27.0394 41.2555 27.1656 41.224 27.2853C41.1925 27.405 41.1275 27.5133 41.0366 27.5973L37.8742 30.6069C37.8267 30.6967 37.8018 30.7967 37.8018 30.8983C37.8018 30.9998 37.8267 31.0999 37.8742 31.1896L38.4795 35.4551C38.505 35.5779 38.4944 35.7055 38.4491 35.8224C38.4037 35.9394 38.3255 36.0407 38.2239 36.1143C38.1222 36.1878 38.0015 36.2304 37.8763 36.2369C37.751 36.2434 37.6265 36.2135 37.5178 36.1509L33.6993 34.1313C33.6002 34.0864 33.4927 34.0632 33.3839 34.0632C33.2751 34.0632 33.1676 34.0864 33.0685 34.1313L29.2499 36.1509C29.1412 36.2135 29.0167 36.2434 28.8915 36.2369C28.7662 36.2304 28.6455 36.1878 28.5439 36.1143C28.4422 36.0407 28.364 35.9394 28.3187 35.8224C28.2733 35.7055 28.2627 35.5779 28.2882 35.4551L29.0038 31.1896C29.035 31.0908 29.041 30.9857 29.0212 30.8839C29.0014 30.7822 28.9566 30.687 28.8907 30.6069L25.7255 27.5747C25.6405 27.4898 25.5806 27.3831 25.5526 27.2662C25.5245 27.1494 25.5294 27.0271 25.5666 26.9129C25.6038 26.7987 25.6719 26.697 25.7633 26.6191C25.8548 26.5412 25.966 26.4901 26.0847 26.4716L30.3757 25.8464C30.4825 25.8366 30.5847 25.798 30.6713 25.7348C30.758 25.6715 30.8259 25.586 30.8679 25.4872L32.7998 21.6008C32.8512 21.4905 32.9325 21.3968 33.0345 21.3304C33.1365 21.264 33.2551 21.2276 33.3768 21.2252C33.4985 21.2228 33.6184 21.2547 33.7229 21.3171C33.8274 21.3794 33.9123 21.4699 33.968 21.5781H33.9651ZM48.3909 39.2228C45.9502 42.8732 42.2659 45.512 38.0241 46.6478L42.0181 53.5664C42.1578 53.8087 42.3662 54.0041 42.617 54.128C42.8678 54.2518 43.1496 54.2985 43.427 54.2622C43.7043 54.2259 43.9646 54.1082 44.175 53.9239C44.3854 53.7396 44.5365 53.4971 44.6091 53.227L46.0516 47.8556L51.4203 49.2953C51.6904 49.3674 51.9758 49.3578 52.2405 49.2678C52.5052 49.1777 52.7372 49.0112 52.9073 48.7894C53.0774 48.5675 53.178 48.3002 53.1962 48.0212C53.2145 47.7422 53.1496 47.4641 53.0099 47.222L48.3909 39.2228ZM28.7719 46.6506C24.5276 45.5237 20.8398 42.8878 18.3995 39.2369L13.7889 47.222C13.6492 47.4641 13.5844 47.7422 13.6026 48.0212C13.6209 48.3002 13.7214 48.5675 13.8915 48.7894C14.0616 49.0112 14.2937 49.1777 14.5584 49.2678C14.823 49.3578 15.1085 49.3674 15.3786 49.2953L20.7501 47.8556L22.1898 53.227C22.2624 53.4971 22.4134 53.7396 22.6239 53.9239C22.8343 54.1082 23.0946 54.2259 23.3719 54.2622C23.6492 54.2985 23.9311 54.2518 24.1819 54.128C24.4326 54.0041 24.641 53.8087 24.7808 53.5664L28.7719 46.6506Z" fill="white"/>
</g>
<defs>
<linearGradient id="paint0_linear_36_313" x1="24.4545" y1="4.5" x2="59.1262" y2="15.5319" gradientUnits="userSpaceOnUse">
<stop stop-color="#A15EFB"/>
<stop offset="1" stop-color="#6D00FF"/>
</linearGradient>
<clipPath id="clip0_36_313">
<rect width="39.6" height="39.6" fill="white" transform="translate(13.5996 14.6992)"/>
</clipPath>
</defs>
</svg>
