<svg width="136" height="63" viewBox="0 0 136 63" fill="none" xmlns="http://www.w3.org/2000/svg">
<rect x="3" y="3" width="130" height="57" rx="10" fill="white"/>
<rect x="1.5" y="1.5" width="133" height="60" rx="11.5" stroke="white" stroke-opacity="0.2" stroke-width="3"/>
<path d="M20.656 50.288C19.312 50.288 18.136 49.984 17.128 49.376C16.12 48.768 15.336 47.944 14.776 46.904C14.216 45.864 13.936 44.712 13.936 43.448C13.936 42.136 14.216 40.976 14.776 39.968C15.352 38.944 16.128 38.136 17.104 37.544C18.096 36.952 19.2 36.656 20.416 36.656C21.44 36.656 22.336 36.824 23.104 37.16C23.888 37.496 24.552 37.96 25.096 38.552C25.64 39.144 26.056 39.824 26.344 40.592C26.632 41.344 26.776 42.16 26.776 43.04C26.776 43.264 26.76 43.496 26.728 43.736C26.712 43.976 26.672 44.184 26.608 44.36H16.528V41.96H24.832L23.344 43.088C23.488 42.352 23.448 41.696 23.224 41.12C23.016 40.544 22.664 40.088 22.168 39.752C21.688 39.416 21.104 39.248 20.416 39.248C19.76 39.248 19.176 39.416 18.664 39.752C18.152 40.072 17.76 40.552 17.488 41.192C17.232 41.816 17.136 42.576 17.2 43.472C17.136 44.272 17.24 44.984 17.512 45.608C17.8 46.216 18.216 46.688 18.76 47.024C19.32 47.36 19.96 47.528 20.68 47.528C21.4 47.528 22.008 47.376 22.504 47.072C23.016 46.768 23.416 46.36 23.704 45.848L26.248 47.096C25.992 47.72 25.592 48.272 25.048 48.752C24.504 49.232 23.856 49.608 23.104 49.88C22.368 50.152 21.552 50.288 20.656 50.288ZM35.4473 50.288C34.1513 50.288 32.9833 49.992 31.9433 49.4C30.9193 48.792 30.1113 47.976 29.5193 46.952C28.9273 45.912 28.6313 44.744 28.6313 43.448C28.6313 42.152 28.9273 40.992 29.5193 39.968C30.1113 38.944 30.9193 38.136 31.9433 37.544C32.9833 36.952 34.1513 36.656 35.4473 36.656C36.3753 36.656 37.2393 36.824 38.0393 37.16C38.8393 37.48 39.5273 37.928 40.1033 38.504C40.6953 39.064 41.1193 39.736 41.3753 40.52L38.6153 41.72C38.3753 41.064 37.9673 40.536 37.3913 40.136C36.8313 39.736 36.1833 39.536 35.4473 39.536C34.7593 39.536 34.1433 39.704 33.5993 40.04C33.0713 40.376 32.6553 40.84 32.3513 41.432C32.0473 42.024 31.8953 42.704 31.8953 43.472C31.8953 44.24 32.0473 44.92 32.3513 45.512C32.6553 46.104 33.0713 46.568 33.5993 46.904C34.1433 47.24 34.7593 47.408 35.4473 47.408C36.1993 47.408 36.8553 47.208 37.4153 46.808C37.9753 46.408 38.3753 45.872 38.6153 45.2L41.3753 46.448C41.1193 47.184 40.7033 47.848 40.1273 48.44C39.5513 49.016 38.8633 49.472 38.0633 49.808C37.2633 50.128 36.3913 50.288 35.4473 50.288ZM50.1449 50.288C48.8649 50.288 47.6969 49.992 46.6409 49.4C45.6009 48.808 44.7689 48 44.1449 46.976C43.5369 45.952 43.2329 44.784 43.2329 43.472C43.2329 42.16 43.5369 40.992 44.1449 39.968C44.7689 38.944 45.6009 38.136 46.6409 37.544C47.6809 36.952 48.8489 36.656 50.1449 36.656C51.4249 36.656 52.5849 36.952 53.6249 37.544C54.6649 38.136 55.4889 38.944 56.0969 39.968C56.7209 40.976 57.0329 42.144 57.0329 43.472C57.0329 44.784 56.7209 45.952 56.0969 46.976C55.4729 48 54.6409 48.808 53.6009 49.4C52.5609 49.992 51.4089 50.288 50.1449 50.288ZM50.1449 47.408C50.8489 47.408 51.4649 47.24 51.9929 46.904C52.5369 46.568 52.9609 46.104 53.2649 45.512C53.5849 44.904 53.7449 44.224 53.7449 43.472C53.7449 42.704 53.5849 42.032 53.2649 41.456C52.9609 40.864 52.5369 40.4 51.9929 40.064C51.4649 39.712 50.8489 39.536 50.1449 39.536C49.4249 39.536 48.7929 39.712 48.2489 40.064C47.7049 40.4 47.2729 40.864 46.9529 41.456C46.6489 42.032 46.4969 42.704 46.4969 43.472C46.4969 44.224 46.6489 44.904 46.9529 45.512C47.2729 46.104 47.7049 46.568 48.2489 46.904C48.7929 47.24 49.4249 47.408 50.1449 47.408ZM59.4171 50V31.832H62.5611V50H59.4171ZM71.848 50.288C70.568 50.288 69.4 49.992 68.344 49.4C67.304 48.808 66.472 48 65.848 46.976C65.24 45.952 64.936 44.784 64.936 43.472C64.936 42.16 65.24 40.992 65.848 39.968C66.472 38.944 67.304 38.136 68.344 37.544C69.384 36.952 70.552 36.656 71.848 36.656C73.128 36.656 74.288 36.952 75.328 37.544C76.368 38.136 77.192 38.944 77.8 39.968C78.424 40.976 78.736 42.144 78.736 43.472C78.736 44.784 78.424 45.952 77.8 46.976C77.176 48 76.344 48.808 75.304 49.4C74.264 49.992 73.112 50.288 71.848 50.288ZM71.848 47.408C72.552 47.408 73.168 47.24 73.696 46.904C74.24 46.568 74.664 46.104 74.968 45.512C75.288 44.904 75.448 44.224 75.448 43.472C75.448 42.704 75.288 42.032 74.968 41.456C74.664 40.864 74.24 40.4 73.696 40.064C73.168 39.712 72.552 39.536 71.848 39.536C71.128 39.536 70.496 39.712 69.952 40.064C69.408 40.4 68.976 40.864 68.656 41.456C68.352 42.032 68.2 42.704 68.2 43.472C68.2 44.224 68.352 44.904 68.656 45.512C68.976 46.104 69.408 46.568 69.952 46.904C70.496 47.24 71.128 47.408 71.848 47.408ZM87.4563 55.28C86.4803 55.28 85.5763 55.12 84.7443 54.8C83.9123 54.48 83.1923 54.032 82.5843 53.456C81.9923 52.896 81.5603 52.232 81.2883 51.464L84.2163 50.36C84.4083 50.968 84.7843 51.456 85.3443 51.824C85.9203 52.208 86.6243 52.4 87.4563 52.4C88.0963 52.4 88.6563 52.28 89.1363 52.04C89.6323 51.8 90.0163 51.448 90.2883 50.984C90.5603 50.536 90.6963 49.992 90.6963 49.352V46.376L91.2963 47.096C90.8483 47.88 90.2483 48.472 89.4963 48.872C88.7443 49.272 87.8883 49.472 86.9283 49.472C85.7123 49.472 84.6243 49.192 83.6643 48.632C82.7043 48.072 81.9523 47.304 81.4083 46.328C80.8643 45.352 80.5923 44.256 80.5923 43.04C80.5923 41.808 80.8643 40.712 81.4083 39.752C81.9523 38.792 82.6963 38.04 83.6403 37.496C84.5843 36.936 85.6563 36.656 86.8563 36.656C87.8323 36.656 88.6883 36.864 89.4243 37.28C90.1763 37.68 90.8003 38.264 91.2963 39.032L90.8643 39.824V36.944H93.8403V49.352C93.8403 50.488 93.5603 51.504 93.0003 52.4C92.4563 53.296 91.7043 54 90.7443 54.512C89.8003 55.024 88.7043 55.28 87.4563 55.28ZM87.3123 46.568C87.9843 46.568 88.5683 46.424 89.0643 46.136C89.5763 45.832 89.9763 45.416 90.2643 44.888C90.5523 44.36 90.6963 43.752 90.6963 43.064C90.6963 42.392 90.5443 41.792 90.2403 41.264C89.9523 40.72 89.5523 40.296 89.0403 39.992C88.5443 39.688 87.9683 39.536 87.3123 39.536C86.6563 39.536 86.0643 39.688 85.5363 39.992C85.0083 40.296 84.5923 40.72 84.2883 41.264C84.0003 41.792 83.8563 42.392 83.8563 43.064C83.8563 43.736 84.0003 44.336 84.2883 44.864C84.5923 45.392 85.0003 45.808 85.5123 46.112C86.0403 46.416 86.6403 46.568 87.3123 46.568ZM96.7765 50V36.944H99.9205V50H96.7765ZM96.7765 35.48V32.12H99.9205V35.48H96.7765ZM109.111 50.288C107.815 50.288 106.647 49.992 105.607 49.4C104.583 48.792 103.775 47.976 103.183 46.952C102.591 45.912 102.295 44.744 102.295 43.448C102.295 42.152 102.591 40.992 103.183 39.968C103.775 38.944 104.583 38.136 105.607 37.544C106.647 36.952 107.815 36.656 109.111 36.656C110.039 36.656 110.903 36.824 111.703 37.16C112.503 37.48 113.191 37.928 113.767 38.504C114.359 39.064 114.783 39.736 115.039 40.52L112.279 41.72C112.039 41.064 111.631 40.536 111.055 40.136C110.495 39.736 109.847 39.536 109.111 39.536C108.423 39.536 107.807 39.704 107.263 40.04C106.735 40.376 106.319 40.84 106.015 41.432C105.711 42.024 105.559 42.704 105.559 43.472C105.559 44.24 105.711 44.92 106.015 45.512C106.319 46.104 106.735 46.568 107.263 46.904C107.807 47.24 108.423 47.408 109.111 47.408C109.863 47.408 110.519 47.208 111.079 46.808C111.639 46.408 112.039 45.872 112.279 45.2L115.039 46.448C114.783 47.184 114.367 47.848 113.791 48.44C113.215 49.016 112.527 49.472 111.727 49.808C110.927 50.128 110.055 50.288 109.111 50.288ZM117.425 50V36.944H120.569V50H117.425ZM117.425 35.48V32.12H120.569V35.48H117.425Z" fill="#471689"/>
</svg>
