<svg width="126" height="80" viewBox="0 0 126 80" fill="none" xmlns="http://www.w3.org/2000/svg">
<rect x="3" y="3" width="120" height="74" rx="10" fill="white"/>
<rect x="1.5" y="1.5" width="123" height="77" rx="11.5" stroke="white" stroke-opacity="0.2" stroke-width="3"/>
<path d="M21.228 46V23.356H16.044V19.18H26.124V46H21.228ZM39.7435 46.432C37.6075 46.432 35.7355 45.856 34.1275 44.704C32.5195 43.552 31.2595 41.932 30.3475 39.844C29.4595 37.756 29.0155 35.332 29.0155 32.572C29.0155 29.788 29.4595 27.364 30.3475 25.3C31.2355 23.236 32.4835 21.628 34.0915 20.476C35.6995 19.324 37.5715 18.748 39.7075 18.748C41.8915 18.748 43.7755 19.324 45.3595 20.476C46.9675 21.628 48.2275 23.248 49.1395 25.336C50.0515 27.4 50.5075 29.812 50.5075 32.572C50.5075 35.332 50.0515 37.756 49.1395 39.844C48.2515 41.908 47.0035 43.528 45.3955 44.704C43.7875 45.856 41.9035 46.432 39.7435 46.432ZM39.7795 41.968C41.0035 41.968 42.0475 41.596 42.9115 40.852C43.7755 40.084 44.4355 39.004 44.8915 37.612C45.3715 36.196 45.6115 34.516 45.6115 32.572C45.6115 30.628 45.3715 28.96 44.8915 27.568C44.4355 26.152 43.7635 25.072 42.8755 24.328C42.0115 23.584 40.9555 23.212 39.7075 23.212C38.5075 23.212 37.4755 23.584 36.6115 24.328C35.7475 25.072 35.0755 26.152 34.5955 27.568C34.1395 28.96 33.9115 30.628 33.9115 32.572C33.9115 34.492 34.1395 36.16 34.5955 37.576C35.0755 38.968 35.7475 40.048 36.6115 40.816C37.4995 41.584 38.5555 41.968 39.7795 41.968ZM62.7118 46.432C60.5758 46.432 58.7038 45.856 57.0958 44.704C55.4878 43.552 54.2278 41.932 53.3158 39.844C52.4278 37.756 51.9838 35.332 51.9838 32.572C51.9838 29.788 52.4278 27.364 53.3158 25.3C54.2038 23.236 55.4518 21.628 57.0598 20.476C58.6678 19.324 60.5398 18.748 62.6758 18.748C64.8598 18.748 66.7438 19.324 68.3278 20.476C69.9358 21.628 71.1958 23.248 72.1078 25.336C73.0198 27.4 73.4758 29.812 73.4758 32.572C73.4758 35.332 73.0198 37.756 72.1078 39.844C71.2198 41.908 69.9718 43.528 68.3638 44.704C66.7558 45.856 64.8718 46.432 62.7118 46.432ZM62.7478 41.968C63.9718 41.968 65.0158 41.596 65.8798 40.852C66.7438 40.084 67.4038 39.004 67.8598 37.612C68.3398 36.196 68.5798 34.516 68.5798 32.572C68.5798 30.628 68.3398 28.96 67.8598 27.568C67.4038 26.152 66.7318 25.072 65.8438 24.328C64.9798 23.584 63.9238 23.212 62.6758 23.212C61.4758 23.212 60.4438 23.584 59.5798 24.328C58.7158 25.072 58.0438 26.152 57.5638 27.568C57.1078 28.96 56.8798 30.628 56.8798 32.572C56.8798 34.492 57.1078 36.16 57.5638 37.576C58.0438 38.968 58.7158 40.048 59.5798 40.816C60.4678 41.584 61.5238 41.968 62.7478 41.968ZM78.4441 46L100.188 19.18H105.228L83.4841 46H78.4441ZM82.6561 32.788C81.3121 32.788 80.1001 32.476 79.0201 31.852C77.9641 31.204 77.1241 30.352 76.5001 29.296C75.8761 28.24 75.5641 27.064 75.5641 25.768C75.5641 24.472 75.8761 23.296 76.5001 22.24C77.1241 21.16 77.9641 20.308 79.0201 19.684C80.1001 19.06 81.3121 18.748 82.6561 18.748C83.9761 18.748 85.1641 19.06 86.2201 19.684C87.2761 20.308 88.1161 21.16 88.7401 22.24C89.3641 23.296 89.6761 24.472 89.6761 25.768C89.6761 27.064 89.3641 28.24 88.7401 29.296C88.1161 30.352 87.2761 31.204 86.2201 31.852C85.1641 32.476 83.9761 32.788 82.6561 32.788ZM82.6201 29.152C83.3401 29.152 83.9401 28.996 84.4201 28.684C84.9001 28.348 85.2601 27.928 85.5001 27.424C85.7641 26.896 85.8961 26.344 85.8961 25.768C85.8961 25.168 85.7641 24.616 85.5001 24.112C85.2601 23.608 84.9001 23.188 84.4201 22.852C83.9401 22.516 83.3401 22.348 82.6201 22.348C81.9481 22.348 81.3601 22.516 80.8561 22.852C80.3761 23.188 80.0041 23.62 79.7401 24.148C79.4761 24.652 79.3441 25.192 79.3441 25.768C79.3441 26.32 79.4761 26.86 79.7401 27.388C80.0041 27.916 80.3761 28.348 80.8561 28.684C81.3601 28.996 81.9481 29.152 82.6201 29.152ZM100.908 46.432C99.5881 46.432 98.3881 46.12 97.3081 45.496C96.2521 44.848 95.4121 43.996 94.7881 42.94C94.1641 41.884 93.8521 40.708 93.8521 39.412C93.8521 38.116 94.1641 36.94 94.7881 35.884C95.4121 34.804 96.2521 33.952 97.3081 33.328C98.3881 32.704 99.5881 32.392 100.908 32.392C102.252 32.392 103.452 32.704 104.508 33.328C105.564 33.952 106.404 34.804 107.028 35.884C107.652 36.94 107.964 38.116 107.964 39.412C107.964 40.708 107.652 41.884 107.028 42.94C106.404 43.996 105.564 44.848 104.508 45.496C103.452 46.12 102.252 46.432 100.908 46.432ZM100.908 42.796C101.604 42.796 102.192 42.64 102.672 42.328C103.176 41.992 103.548 41.572 103.788 41.068C104.052 40.54 104.184 39.988 104.184 39.412C104.184 38.812 104.052 38.26 103.788 37.756C103.548 37.252 103.176 36.832 102.672 36.496C102.192 36.16 101.604 35.992 100.908 35.992C100.236 35.992 99.6481 36.16 99.1441 36.496C98.6641 36.832 98.2921 37.264 98.0281 37.792C97.7641 38.296 97.6321 38.836 97.6321 39.412C97.6321 39.964 97.7641 40.504 98.0281 41.032C98.2921 41.56 98.6641 41.992 99.1441 42.328C99.6481 42.64 100.236 42.796 100.908 42.796Z" fill="#471689"/>
<path d="M22.024 66.192C21.192 66.192 20.4133 66.0427 19.688 65.744C18.9733 65.4347 18.344 65.008 17.8 64.464C17.256 63.9093 16.8293 63.2587 16.52 62.512C16.2107 61.7547 16.056 60.928 16.056 60.032C16.056 59.136 16.2107 58.3147 16.52 57.568C16.8293 56.8107 17.256 56.16 17.8 55.616C18.344 55.0613 18.9733 54.6347 19.688 54.336C20.4133 54.0373 21.192 53.888 22.024 53.888C22.856 53.888 23.6293 54.0427 24.344 54.352C25.0693 54.6507 25.704 55.0773 26.248 55.632C26.792 56.176 27.2187 56.8213 27.528 57.568C27.8373 58.3147 27.992 59.136 27.992 60.032C27.992 60.928 27.8373 61.7547 27.528 62.512C27.2187 63.2587 26.792 63.9093 26.248 64.464C25.704 65.008 25.0693 65.4347 24.344 65.744C23.6293 66.0427 22.856 66.192 22.024 66.192ZM22.024 64.992C22.7173 64.992 23.3467 64.864 23.912 64.608C24.488 64.352 24.984 63.9947 25.4 63.536C25.816 63.0773 26.136 62.5493 26.36 61.952C26.5947 61.3547 26.712 60.7147 26.712 60.032C26.712 59.36 26.5947 58.7253 26.36 58.128C26.136 57.5307 25.816 57.0027 25.4 56.544C24.984 56.0853 24.488 55.728 23.912 55.472C23.3467 55.216 22.7173 55.088 22.024 55.088C21.3307 55.088 20.696 55.216 20.12 55.472C19.5547 55.728 19.064 56.0853 18.648 56.544C18.232 57.0027 17.9067 57.5307 17.672 58.128C17.448 58.7253 17.336 59.36 17.336 60.032C17.336 60.7147 17.448 61.3547 17.672 61.952C17.9067 62.5493 18.232 63.0773 18.648 63.536C19.064 63.9947 19.56 64.352 20.136 64.608C20.712 64.864 21.3413 64.992 22.024 64.992ZM25.464 67.44L21.224 61.232H22.68L26.92 67.44H25.464ZM33.3189 66.192C32.7215 66.192 32.1775 66.0533 31.6869 65.776C31.1962 65.488 30.8069 65.0933 30.5189 64.592C30.2415 64.08 30.1029 63.4933 30.1029 62.832V57.424H31.3029V62.688C31.3029 63.1467 31.3935 63.552 31.5749 63.904C31.7669 64.2453 32.0282 64.512 32.3589 64.704C32.7002 64.896 33.0895 64.992 33.5269 64.992C33.9642 64.992 34.3535 64.896 34.6949 64.704C35.0362 64.5013 35.3029 64.2187 35.4949 63.856C35.6869 63.4827 35.7829 63.04 35.7829 62.528V57.424H36.9829V66H35.7829V64.336L36.0549 64.4C35.8522 64.9547 35.5055 65.392 35.0149 65.712C34.5242 66.032 33.9589 66.192 33.3189 66.192ZM41.9308 66.192C41.3868 66.192 40.9014 66.0907 40.4748 65.888C40.0481 65.6747 39.7121 65.3867 39.4668 65.024C39.2214 64.6613 39.0988 64.2453 39.0988 63.776C39.0988 63.328 39.1948 62.9227 39.3868 62.56C39.5788 62.1867 39.8774 61.872 40.2828 61.616C40.6881 61.36 41.2054 61.1787 41.8348 61.072L45.1948 60.512V61.6L42.1228 62.112C41.5041 62.2187 41.0561 62.416 40.7788 62.704C40.5121 62.992 40.3788 63.3333 40.3788 63.728C40.3788 64.112 40.5281 64.4373 40.8268 64.704C41.1361 64.9707 41.5308 65.104 42.0108 65.104C42.5974 65.104 43.1094 64.9813 43.5468 64.736C43.9841 64.48 44.3254 64.1387 44.5708 63.712C44.8161 63.2853 44.9388 62.8107 44.9388 62.288V60.112C44.9388 59.6 44.7521 59.184 44.3788 58.864C44.0054 58.544 43.5201 58.384 42.9227 58.384C42.4001 58.384 41.9414 58.5173 41.5468 58.784C41.1521 59.04 40.8588 59.376 40.6668 59.792L39.5788 59.2C39.7388 58.8373 39.9894 58.5067 40.3307 58.208C40.6828 57.9093 41.0828 57.6747 41.5308 57.504C41.9788 57.3227 42.4428 57.232 42.9227 57.232C43.5521 57.232 44.1068 57.3547 44.5868 57.6C45.0774 57.8453 45.4561 58.1867 45.7228 58.624C46.0001 59.0507 46.1388 59.5467 46.1388 60.112V66H44.9388V64.288L45.1148 64.464C44.9654 64.784 44.7308 65.0773 44.4108 65.344C44.1014 65.6 43.7334 65.808 43.3068 65.968C42.8908 66.1173 42.4321 66.192 41.9308 66.192ZM48.607 66V53.888H49.807V66H48.607ZM52.2633 66V57.424H53.4633V66H52.2633ZM52.2633 55.84V54.08H53.4633V55.84H52.2633ZM56.7995 66V58.624H55.0875V57.424H56.7995V56.656C56.7995 56.0587 56.9328 55.5573 57.1995 55.152C57.4662 54.736 57.8182 54.4213 58.2555 54.208C58.6928 53.9947 59.1622 53.888 59.6635 53.888C59.7702 53.888 59.8928 53.8987 60.0315 53.92C60.1702 53.9307 60.2822 53.9467 60.3675 53.968V55.056C60.2928 55.0347 60.1915 55.024 60.0635 55.024C59.9355 55.0133 59.8448 55.008 59.7915 55.008C59.2795 55.008 58.8528 55.1307 58.5115 55.376C58.1702 55.6213 57.9995 56.048 57.9995 56.656V57.424H62.8155V58.624H57.9995V66H56.7995ZM61.8075 66V57.424H63.0075V66H61.8075ZM69.152 66.192C68.3093 66.192 67.568 65.9947 66.928 65.6C66.288 65.2053 65.7867 64.672 65.424 64C65.0613 63.3173 64.88 62.5493 64.88 61.696C64.88 60.8427 65.0613 60.08 65.424 59.408C65.7867 58.736 66.288 58.208 66.928 57.824C67.568 57.4293 68.3093 57.232 69.152 57.232C69.6853 57.232 70.1867 57.328 70.656 57.52C71.1253 57.712 71.5413 57.9733 71.904 58.304C72.2667 58.624 72.5387 58.9973 72.72 59.424L71.632 59.984C71.4187 59.5253 71.0933 59.152 70.656 58.864C70.2187 58.576 69.7173 58.432 69.152 58.432C68.5867 58.432 68.0747 58.576 67.616 58.864C67.168 59.1413 66.8107 59.5307 66.544 60.032C66.288 60.5227 66.16 61.0827 66.16 61.712C66.16 62.3307 66.288 62.8907 66.544 63.392C66.8107 63.8827 67.168 64.272 67.616 64.56C68.0747 64.848 68.5867 64.992 69.152 64.992C69.7173 64.992 70.2133 64.848 70.64 64.56C71.0773 64.272 71.408 63.888 71.632 63.408L72.72 64C72.5387 64.416 72.2667 64.7893 71.904 65.12C71.5413 65.4507 71.1253 65.712 70.656 65.904C70.1867 66.096 69.6853 66.192 69.152 66.192ZM77.1495 66.192C76.6055 66.192 76.1202 66.0907 75.6935 65.888C75.2668 65.6747 74.9308 65.3867 74.6855 65.024C74.4402 64.6613 74.3175 64.2453 74.3175 63.776C74.3175 63.328 74.4135 62.9227 74.6055 62.56C74.7975 62.1867 75.0962 61.872 75.5015 61.616C75.9068 61.36 76.4242 61.1787 77.0535 61.072L80.4135 60.512V61.6L77.3415 62.112C76.7228 62.2187 76.2748 62.416 75.9975 62.704C75.7308 62.992 75.5975 63.3333 75.5975 63.728C75.5975 64.112 75.7468 64.4373 76.0455 64.704C76.3548 64.9707 76.7495 65.104 77.2295 65.104C77.8162 65.104 78.3282 64.9813 78.7655 64.736C79.2028 64.48 79.5442 64.1387 79.7895 63.712C80.0348 63.2853 80.1575 62.8107 80.1575 62.288V60.112C80.1575 59.6 79.9708 59.184 79.5975 58.864C79.2242 58.544 78.7388 58.384 78.1415 58.384C77.6188 58.384 77.1602 58.5173 76.7655 58.784C76.3708 59.04 76.0775 59.376 75.8855 59.792L74.7975 59.2C74.9575 58.8373 75.2082 58.5067 75.5495 58.208C75.9015 57.9093 76.3015 57.6747 76.7495 57.504C77.1975 57.3227 77.6615 57.232 78.1415 57.232C78.7708 57.232 79.3255 57.3547 79.8055 57.6C80.2962 57.8453 80.6748 58.1867 80.9415 58.624C81.2188 59.0507 81.3575 59.5467 81.3575 60.112V66H80.1575V64.288L80.3335 64.464C80.1842 64.784 79.9495 65.0773 79.6295 65.344C79.3202 65.6 78.9522 65.808 78.5255 65.968C78.1095 66.1173 77.6508 66.192 77.1495 66.192ZM86.9495 66.096C86.1815 66.096 85.5895 65.872 85.1735 65.424C84.7575 64.976 84.5495 64.336 84.5495 63.504V58.624H82.9655V57.424H83.3655C83.7282 57.424 84.0162 57.3067 84.2295 57.072C84.4428 56.8267 84.5495 56.5227 84.5495 56.16V55.44H85.7495V57.424H87.6375V58.624H85.7495V63.504C85.7495 63.792 85.7922 64.048 85.8775 64.272C85.9628 64.4853 86.1068 64.656 86.3095 64.784C86.5228 64.912 86.8055 64.976 87.1575 64.976C87.2428 64.976 87.3442 64.9707 87.4615 64.96C87.5788 64.9493 87.6802 64.9387 87.7655 64.928V66C87.6375 66.032 87.4935 66.0533 87.3335 66.064C87.1735 66.0853 87.0455 66.096 86.9495 66.096ZM89.8726 66V57.424H91.0726V66H89.8726ZM89.8726 55.84V54.08H91.0726V55.84H89.8726Z" fill="#001422"/>
</svg>
