<svg width="68" height="68" viewBox="0 0 68 68" fill="none" xmlns="http://www.w3.org/2000/svg">
<circle cx="34" cy="34" r="30" fill="url(#paint0_linear_36_321)"/>
<circle cx="34" cy="34" r="32" stroke="white" stroke-opacity="0.2" stroke-width="4"/>
<path d="M18.6639 27.2965C19.1545 27.4908 20.0187 27.9234 20.8417 28.8993C21.6647 29.8752 22.0295 30.8999 22.1933 31.4818C22.3113 31.9068 22.6544 32.2689 23.1122 32.2691C23.57 32.2689 23.9131 31.9068 24.0311 31.4818C24.1949 30.9 24.5597 29.8752 25.3827 28.8993C26.2057 27.9234 27.0699 27.4908 27.5605 27.2965C27.9188 27.1566 28.2242 26.7497 28.2244 26.2069C28.2242 25.664 27.9188 25.2571 27.5605 25.1172C27.0699 24.9229 26.2057 24.4904 25.3827 23.5145C24.5597 22.5385 24.1949 21.5138 24.0311 20.932C23.9131 20.507 23.57 20.1449 23.1122 20.1447C22.6544 20.1449 22.3113 20.507 22.1933 20.932C22.0295 21.5137 21.6647 22.5385 20.8417 23.5145C20.0187 24.4904 19.1545 24.9229 18.6639 25.1172C18.3055 25.2571 18.0002 25.664 18 26.2069C18.0002 26.7497 18.3055 27.1566 18.6639 27.2965ZM33.5562 26.2076C33.5562 26.8413 33.9894 27.355 34.5237 27.355H35.6289V28.6655C35.6289 29.2991 36.0621 29.8128 36.5964 29.8128C37.1308 29.8128 37.564 29.2991 37.564 28.6655V27.355H38.6691C39.2034 27.355 39.6366 26.8413 39.6366 26.2076C39.6366 25.574 39.2034 25.0603 38.6691 25.0603H37.564V23.7498C37.564 23.1162 37.1308 22.6025 36.5964 22.6025C36.0621 22.6025 35.6289 23.1162 35.6289 23.7498V25.0603H34.5237C33.9894 25.0603 33.5562 25.574 33.5562 26.2076ZM29.342 18.7525H30.4471V20.063C30.4471 20.6966 30.8803 21.2103 31.4147 21.2103C31.949 21.2103 32.3822 20.6966 32.3822 20.063V18.7525H33.4874C34.0217 18.7525 34.4549 18.2388 34.4549 17.6052C34.4549 16.9715 34.0217 16.4578 33.4874 16.4578H32.3822V15.1473C32.3822 14.5137 31.949 14 31.4147 14C30.8803 14 30.4471 14.5137 30.4471 15.1473V16.4578H29.342C28.8077 16.4578 28.3745 16.9715 28.3745 17.6052C28.3745 18.2388 28.8077 18.7525 29.342 18.7525ZM34.2217 48.5917C34.2561 48.5866 35.2347 48.4348 36.1514 47.7022C36.1861 47.6744 36.2187 47.6447 36.2524 47.6159L38.0114 37.1863H38.6691C39.2034 37.1863 39.6366 36.6726 39.6366 36.039C39.6366 35.4054 39.2034 34.8917 38.6691 34.8917H20.015C19.4807 34.8917 19.0475 35.4054 19.0475 36.039C19.0475 36.6726 19.4807 37.1863 20.015 37.1863H20.6727L22.4098 47.4858C22.5115 47.4096 22.6058 47.3203 22.6909 47.2193L28.658 40.1434C29.0358 39.6953 29.6484 39.6953 30.0263 40.1434C30.4041 40.5915 30.4041 41.3179 30.0263 41.766L24.0592 48.842C23.7519 49.2064 23.3191 49.5641 22.8002 49.8008L23.2116 52.2401C23.2555 52.5001 23.374 52.7342 23.5469 52.9023C23.7199 53.0705 23.9366 53.1624 24.1603 53.1624H31.7863C31.693 52.8481 31.6385 52.5194 31.6247 52.1865C31.5477 50.3578 32.6875 48.7818 34.2217 48.5917Z" fill="white"/>
<path d="M18.848 26.8317L18.8458 26.8308C18.6974 26.7729 18.5002 26.564 18.5 26.2069C18.5002 25.8497 18.6975 25.6409 18.8457 25.583L18.848 25.5821C19.3922 25.3666 20.3337 24.8925 21.2239 23.8368C22.1101 22.786 22.5003 21.6865 22.6746 21.0675L22.6751 21.0657C22.7539 20.7818 22.9487 20.6449 23.1122 20.6447C23.2757 20.6449 23.4705 20.7818 23.5493 21.0657L23.5498 21.0675C23.7241 21.6866 24.1143 22.786 25.0004 23.8368C25.8907 24.8925 26.8321 25.3666 27.3764 25.5821L27.3787 25.583C27.5269 25.6409 27.7242 25.8497 27.7244 26.2069C27.7242 26.5641 27.5269 26.7729 27.3787 26.8308L27.3764 26.8317C26.8322 27.0472 25.8907 27.5212 25.0004 28.577C24.1143 29.6278 23.7241 30.7272 23.5498 31.3463L23.5493 31.348C23.4705 31.6319 23.2757 31.7689 23.1122 31.7691C22.9487 31.7689 22.7539 31.6319 22.6751 31.348L22.6746 31.3463C22.5003 30.7272 22.1101 29.6277 21.2239 28.577C20.3337 27.5212 19.3923 27.0472 18.848 26.8317ZM36.1289 27.355V26.855H35.6289H34.5237C34.342 26.855 34.0562 26.6484 34.0562 26.2076C34.0562 25.7669 34.342 25.5603 34.5237 25.5603H35.6289H36.1289V25.0603V23.7498C36.1289 23.3091 36.4147 23.1025 36.5964 23.1025C36.7781 23.1025 37.064 23.3091 37.064 23.7498V25.0603V25.5603H37.564H38.6691C38.8508 25.5603 39.1366 25.7669 39.1366 26.2076C39.1366 26.6484 38.8508 26.855 38.6691 26.855H37.564H37.064V27.355V28.6655C37.064 29.1062 36.7781 29.3128 36.5964 29.3128C36.4147 29.3128 36.1289 29.1062 36.1289 28.6655V27.355ZM30.9471 18.7525V18.2525H30.4471H29.342C29.1603 18.2525 28.8745 18.0459 28.8745 17.6052C28.8745 17.1644 29.1603 16.9578 29.342 16.9578H30.4471H30.9471V16.4578V15.1473C30.9471 14.7066 31.233 14.5 31.4147 14.5C31.5964 14.5 31.8822 14.7066 31.8822 15.1473V16.4578V16.9578H32.3822H33.4874C33.6691 16.9578 33.9549 17.1644 33.9549 17.6052C33.9549 18.0459 33.6691 18.2525 33.4874 18.2525H32.3822H31.8822V18.7525V20.063C31.8822 20.5037 31.5964 20.7103 31.4147 20.7103C31.233 20.7103 30.9471 20.5037 30.9471 20.063V18.7525ZM31.1669 52.6624H24.1603C24.0777 52.6624 23.9832 52.6291 23.8955 52.5438C23.8059 52.4567 23.7326 52.3225 23.7046 52.1569L23.3538 50.0765C23.7933 49.8209 24.1624 49.4952 24.4414 49.1643L30.4085 42.0883C30.9434 41.454 30.9434 40.4554 30.4085 39.8211C30.1309 39.4919 29.7466 39.3074 29.3421 39.3074C28.9376 39.3074 28.5533 39.4919 28.2758 39.8211C28.2757 39.8211 28.2757 39.8211 28.2757 39.8211L22.7327 46.3941L21.1658 37.1032L21.0955 36.6863H20.6727H20.015C19.8333 36.6863 19.5475 36.4798 19.5475 36.039C19.5475 35.5983 19.8333 35.3917 20.015 35.3917H38.6691C38.8508 35.3917 39.1366 35.5983 39.1366 36.039C39.1366 36.4798 38.8508 36.6863 38.6691 36.6863H38.0114H37.5887L37.5184 37.1032L35.7901 47.3502C35.0204 47.9444 34.2139 48.0863 34.1518 48.0965C32.2975 48.3315 31.0404 50.1942 31.1251 52.2076C31.1315 52.3601 31.1454 52.5119 31.1669 52.6624Z" stroke="white" stroke-opacity="0.2"/>
<path d="M20.9384 47.6327C20.3355 47.3366 19.9459 46.6451 19.9459 45.8703C19.9459 45.6391 19.9824 45.4147 20.0515 45.2058L19.5652 42.323L19.0269 42.9613C18.3716 43.7384 18.0107 44.7715 18.0107 45.8712C18.0107 47.5765 18.8693 49.1001 20.1978 49.7526C21.1638 50.2272 22.0676 50.1349 22.7998 49.8008L22.4094 47.4858C21.9744 47.8113 21.4284 47.8732 20.9384 47.6327ZM45.8544 35.134V15.1473C45.8544 14.5137 45.4212 14 44.8869 14C44.3525 14 43.9193 14.5137 43.9193 15.1473V35.134C44.2399 35.0814 44.5632 35.055 44.8869 35.0549C45.2151 35.0549 45.538 35.0822 45.8544 35.134ZM44.8869 37.3496C42.0676 37.3496 39.774 40.0694 39.774 43.4126C39.774 50.1652 34.5632 50.8562 34.4272 50.8734C33.9141 50.9343 33.5314 51.4616 33.5571 52.0723C33.5828 52.6829 34.0078 53.1624 34.5234 53.1624H41.7778C49.0639 53.1624 49.9997 46.658 49.9997 43.4125C49.9997 40.0694 47.7061 37.3496 44.8869 37.3496Z" fill="white"/>
<path d="M20.718 48.0815L20.718 48.0815C21.1426 48.29 21.6 48.3293 22.0258 48.218L22.2384 49.4789C21.6999 49.6386 21.0819 49.6299 20.4183 49.3039L20.4182 49.3039C19.2907 48.7501 18.5107 47.4216 18.5107 45.8712C18.5107 44.9727 18.7778 44.1365 19.2537 43.4821L19.539 45.1737C19.4776 45.3971 19.4459 45.6315 19.4459 45.8703C19.4459 46.7999 19.9139 47.6866 20.718 48.0815ZM44.4193 34.5719V15.1473C44.4193 14.7066 44.7052 14.5 44.8869 14.5C45.0686 14.5 45.3544 14.7066 45.3544 15.1473V34.5719C45.1998 34.5607 45.0439 34.5549 44.8869 34.5549H44.8867C44.7308 34.5549 44.5749 34.5606 44.4193 34.5719ZM34.486 51.37L34.4902 51.3695C34.5976 51.3558 36.0361 51.1618 37.4572 50.0645C38.9031 48.9481 40.274 46.9392 40.274 43.4126C40.274 40.2623 42.4202 37.8496 44.8869 37.8496C47.3535 37.8496 49.4997 40.2623 49.4997 43.4125C49.4997 45.0036 49.2675 47.3385 48.1854 49.2591C47.1266 51.1383 45.235 52.6624 41.7778 52.6624H34.5234C34.3475 52.6624 34.0744 52.4722 34.0567 52.0512C34.0388 51.6285 34.2996 51.3921 34.486 51.37Z" stroke="white" stroke-opacity="0.2"/>
<defs>
<linearGradient id="paint0_linear_36_321" x1="24.4545" y1="4" x2="59.1262" y2="15.0319" gradientUnits="userSpaceOnUse">
<stop stop-color="#A15EFB"/>
<stop offset="1" stop-color="#6D00FF"/>
</linearGradient>
</defs>
</svg>
