<svg width="16" height="16" viewBox="0 0 16 16" fill="none" xmlns="http://www.w3.org/2000/svg">
<path d="M14.5597 5.70743L14.4997 5.46743C14.4202 5.23431 14.3151 5.01072 14.1863 4.80076C13.8936 4.31199 13.4744 3.91124 12.973 3.64076L9.47301 1.74743C9.01019 1.50113 8.49395 1.37231 7.96967 1.37231C7.4454 1.37231 6.92916 1.50113 6.46634 1.74743L2.96634 3.64076C2.46491 3.91124 2.04574 4.31199 1.75301 4.80076C1.62265 5.00893 1.51958 5.23299 1.44634 5.46743V5.56076C1.37168 5.82772 1.33355 6.10356 1.33301 6.38076V11.4608C1.33477 12.3001 1.66896 13.1045 2.26245 13.698C2.85593 14.2915 3.66036 14.6257 4.49967 14.6274H11.4997C11.9155 14.6274 12.3273 14.5455 12.7115 14.3864C13.0957 14.2272 13.4448 13.994 13.7388 13.6999C14.0329 13.4059 14.2662 13.0568 14.4253 12.6726C14.5844 12.2884 14.6663 11.8766 14.6663 11.4608V6.37409C14.6544 6.14873 14.6186 5.92527 14.5597 5.70743ZM9.05301 7.94076C8.72256 8.12772 8.34935 8.22598 7.96967 8.22598C7.59 8.22598 7.21679 8.12772 6.88634 7.94076L2.53301 5.42076C2.55301 5.36965 2.57745 5.32076 2.60634 5.27409C2.80754 4.93938 3.09548 4.66527 3.43967 4.48076L6.93967 2.58743C7.2546 2.41584 7.6077 2.32642 7.96634 2.32743C8.32709 2.32644 8.68235 2.41583 8.99967 2.58743L12.4997 4.48076C12.9115 4.7034 13.2393 5.05457 13.433 5.48076L9.05301 7.94076Z" fill="white"/>
</svg>
