<svg width="24" height="25" viewBox="0 0 24 25" fill="none" xmlns="http://www.w3.org/2000/svg">
<path d="M6.3105 11.75H20.25C20.4489 11.75 20.6397 11.829 20.7803 11.9696C20.921 12.1103 21 12.3011 21 12.5C21 12.6989 20.921 12.8896 20.7803 13.0303C20.6397 13.171 20.4489 13.25 20.25 13.25H6.3105L11.781 18.719C11.9218 18.8598 12.0009 19.0508 12.0009 19.25C12.0009 19.4491 11.9218 19.6401 11.781 19.781C11.6402 19.9218 11.4492 20.0009 11.25 20.0009C11.0508 20.0009 10.8598 19.9218 10.719 19.781L3.969 13.031C3.89915 12.9613 3.84374 12.8785 3.80593 12.7874C3.76812 12.6963 3.74866 12.5986 3.74866 12.5C3.74866 12.4013 3.76812 12.3036 3.80593 12.2125C3.84374 12.1214 3.89915 12.0386 3.969 11.969L10.719 5.21897C10.8598 5.07814 11.0508 4.99902 11.25 4.99902C11.4492 4.99902 11.6402 5.07814 11.781 5.21897C11.9218 5.3598 12.0009 5.55081 12.0009 5.74997C12.0009 5.94913 11.9218 6.14014 11.781 6.28097L6.3105 11.75Z" fill="#6324B7"/>
</svg>
