<svg width="104" height="40" viewBox="0 0 104 40" fill="none" xmlns="http://www.w3.org/2000/svg">
<path d="M44.3916 20.2143H36.9151C36.303 20.2143 35.8072 19.7172 35.8072 19.1036V15.1755C35.8072 14.6555 35.4306 14.2032 34.9496 14.1454C34.5671 14.0996 34.3028 14.276 34.1795 14.3865C33.9679 14.5748 33.8467 14.8418 33.8467 15.1207L33.8437 19.0916C33.8437 19.7033 33.3488 20.2004 32.7377 20.2014L25.9161 20.2143C24.9433 20.2143 24.1543 19.4234 24.1543 18.4501V7.67308C24.1543 6.85021 24.5657 6.0911 25.2543 5.6438L33.2216 0.472487C34.2004 -0.163094 35.4614 -0.157117 36.4342 0.488426L44.4184 5.78626C45.0951 6.23555 45.4985 6.98869 45.4985 7.80259V15.7195C45.4985 16.3331 45.0027 16.8302 44.3906 16.8302C43.7785 16.8302 43.2826 16.3331 43.2826 15.7195V7.80259C43.2826 7.73684 43.2499 7.67507 43.1952 7.63921L35.211 2.34137C34.9735 2.18397 34.6654 2.18198 34.426 2.33739L26.4596 7.50871C26.404 7.54457 26.3702 7.60633 26.3702 7.67308V17.9918L31.6288 17.9818L31.6307 15.1197C31.6307 14.2072 32.0233 13.3335 32.7089 12.7249C33.3925 12.1172 34.3047 11.8313 35.213 11.9398C36.8148 12.1321 38.0221 13.5238 38.0221 15.1755V17.9928H44.3906C45.0027 17.9928 45.4985 18.4899 45.4985 19.1036C45.4985 19.7172 45.0027 20.2143 44.3906 20.2143H44.3916Z" fill="#A15EFB"/>
<path d="M12.6386 20.2579H9.40816V12.8352H3.18276V20.2579H0V7.88602C0 6.10779 0.609126 4.6085 1.82738 3.38814C3.04563 2.16878 4.54311 1.55811 6.31981 1.55811C8.09651 1.55811 9.57411 2.17177 10.8003 3.40009C12.0265 4.62742 12.6396 6.12273 12.6396 7.88602V20.2579H12.6386ZM9.40816 10.0687V7.8661C9.40816 7.00737 9.10609 6.27316 8.50392 5.66348C7.90075 5.0548 7.1694 4.74996 6.30788 4.74996C5.44636 4.74996 4.71004 5.0548 4.09992 5.66348C3.48881 6.27316 3.18375 7.00737 3.18375 7.8661V10.0687H9.40916H9.40816Z" fill="#471689"/>
<path d="M17.4494 20.2579H14.2656V1.55811H17.4494V20.2569V20.2579Z" fill="#471689"/>
<path d="M22.2599 20.2579H19.0762V1.55811H22.2599V20.2569V20.2579Z" fill="#471689"/>
<path d="M31.7138 33.6971C31.7138 35.4753 31.1047 36.9706 29.8865 38.183C28.6682 39.3954 27.1707 40.0011 25.394 40.0011V36.8093C26.2585 36.8093 26.9978 36.5054 27.6109 35.8987C28.224 35.292 28.5301 34.5548 28.5301 33.6881V33.1203C27.5553 33.6722 26.5099 33.9482 25.394 33.9482C23.6332 33.9482 22.1397 33.3345 20.9135 32.1082C19.6873 30.8808 19.0742 29.3865 19.0742 27.6242V21.3003H22.258V27.6202C22.258 28.4849 22.561 29.2231 23.1692 29.8368C23.7763 30.4495 24.5146 30.7563 25.3821 30.7563C26.2496 30.7563 26.9919 30.4495 27.6069 29.8368C28.222 29.2231 28.5301 28.4849 28.5301 27.6202V21.3003H31.7138V33.6961V33.6971Z" fill="#471689"/>
<path d="M45.9566 27.6003C45.9566 29.3626 45.3475 30.8569 44.1292 32.0833C42.911 33.3106 41.4214 33.9232 39.6606 33.9232C37.8998 33.9232 36.3865 33.3136 35.1682 32.0952C33.9499 30.8758 33.3408 29.3776 33.3408 27.6003C33.3408 25.8231 33.9539 24.3477 35.1801 23.1293C36.4063 21.91 37.8998 21.3003 39.6606 21.3003C41.4214 21.3003 42.911 21.91 44.1292 23.1293C45.3475 24.3487 45.9566 25.839 45.9566 27.6003ZM42.7728 27.6003C42.7728 26.7525 42.4668 26.0223 41.8537 25.4106C41.2406 24.798 40.5092 24.4921 39.6606 24.4921C38.812 24.4921 38.0568 24.795 37.4437 25.3987C36.8306 26.0034 36.5246 26.7366 36.5246 27.6003C36.5246 28.464 36.8306 29.2022 37.4437 29.8139C38.0568 30.4266 38.7951 30.7324 39.6606 30.7324C40.5261 30.7324 41.2605 30.4266 41.8656 29.8139C42.4708 29.2012 42.7738 28.463 42.7738 27.6003H42.7728Z" fill="#471689"/>
<path d="M60.2451 27.6123C60.2451 29.3935 59.636 30.8948 58.4177 32.1161C57.1995 33.3375 55.702 33.9482 53.9253 33.9482C52.1486 33.9482 50.671 33.3335 49.4448 32.1042C48.2186 30.8749 47.6055 29.3775 47.6055 27.6123V21.3003H50.7892V27.6123C50.7892 28.479 51.0923 29.2201 51.7004 29.8348C52.3086 30.4495 53.0459 30.7563 53.9134 30.7563C54.7808 30.7563 55.5231 30.4495 56.1382 29.8348C56.7533 29.2201 57.0613 28.48 57.0613 27.6123V21.3003H60.2451V27.6123Z" fill="#471689"/>
<path d="M60.247 20.2571H57.0633V14.2918C57.0633 13.443 56.7552 12.7128 56.1402 12.0991C55.5251 11.4855 54.7907 11.1796 53.9392 11.1796C53.0876 11.1796 52.3294 11.4825 51.7143 12.0872C51.0992 12.6919 50.7912 13.4271 50.7912 14.2918V20.2571H47.6074V14.2878C47.6074 12.5265 48.2205 11.0362 49.4467 9.81683C50.6729 8.59747 52.1664 7.98779 53.9272 7.98779C55.688 7.98779 57.1815 8.59747 58.4077 9.81683C59.6339 11.0362 60.247 12.5265 60.247 14.2878V20.2571Z" fill="#471689"/>
<path d="M74.4888 14.2813C74.4888 14.5951 74.4649 14.9099 74.4182 15.2237H65.1989C65.4026 15.8852 65.7802 16.4171 66.3307 16.8196C66.8812 17.2211 67.5012 17.4223 68.1938 17.4223C69.1527 17.4223 69.9467 17.0517 70.5757 16.3115L72.5094 18.8887C71.2991 20.0394 69.8602 20.6142 68.1938 20.6142C66.4171 20.6142 64.9197 20.0045 63.7014 18.7861C62.4832 17.5668 61.874 16.0685 61.874 14.2912C61.874 12.514 62.4871 11.0386 63.7133 9.82025C64.9395 8.60089 66.433 7.99121 68.1938 7.99121C69.9546 7.99121 71.4442 8.59989 72.6624 9.81726C73.8807 11.0346 74.4898 12.523 74.4898 14.2823L74.4888 14.2813ZM70.9284 12.8358C70.3471 11.733 69.4349 11.1811 68.1928 11.1811C66.9507 11.1811 66.0157 11.733 65.4344 12.8358H70.9284Z" fill="#471689"/>
<path d="M88.7544 14.2813C88.7544 14.5951 88.7306 14.9099 88.6839 15.2237H79.4645C79.6682 15.8852 80.0458 16.4171 80.5963 16.8196C81.1468 17.2211 81.7669 17.4223 82.4595 17.4223C83.4184 17.4223 84.2123 17.0517 84.8413 16.3115L86.775 18.8887C85.5647 20.0394 84.1259 20.6142 82.4595 20.6142C80.6828 20.6142 79.1853 20.0045 77.967 18.7861C76.7488 17.5668 76.1396 16.0685 76.1396 14.2912C76.1396 12.514 76.7528 11.0386 77.979 9.82025C79.2052 8.60089 80.6987 7.99121 82.4595 7.99121C84.2203 7.99121 85.7098 8.59989 86.928 9.81726C88.1463 11.0346 88.7554 12.523 88.7554 14.2823L88.7544 14.2813ZM85.1941 12.8358C84.6128 11.733 83.7006 11.1811 82.4585 11.1811C81.2164 11.1811 80.2813 11.733 79.7 12.8358H85.1941Z" fill="#471689"/>
<path d="M103.021 14.2847C103.021 16.048 102.412 17.5433 101.194 18.7706C99.9754 19.9989 98.4859 20.6126 96.7251 20.6126C94.9643 20.6126 93.4509 20.0029 92.2327 18.7845C91.0144 17.5652 90.4053 16.0669 90.4053 14.2896C90.4053 12.5124 91.0184 11.037 92.2446 9.81866C93.4708 8.59931 94.9643 7.98963 96.7251 7.98963C97.841 7.98963 98.8784 8.25761 99.8373 8.79357V1.55811H103.021V14.2847ZM99.8373 14.2887C99.8373 13.4409 99.5312 12.7107 98.9181 12.099C98.305 11.4863 97.5737 11.1805 96.7251 11.1805C95.8765 11.1805 95.1213 11.4833 94.5082 12.087C93.8951 12.6917 93.589 13.4249 93.589 14.2887C93.589 15.1524 93.8951 15.8906 94.5082 16.5022C95.1213 17.1149 95.8596 17.4207 96.7251 17.4207C97.5906 17.4207 98.3249 17.1149 98.9301 16.5022C99.5352 15.8896 99.8383 15.1524 99.8383 14.2887H99.8373Z" fill="#471689"/>
</svg>
